<svg width="175" height="58" viewBox="0 0 175 58" fill="none" xmlns="http://www.w3.org/2000/svg">
<g clip-path="url(#clip0_250_7604)">
<path d="M0 56.348C0.394 37.984 0.394 17.496 0 0H10.56C10.482 7.33 10.324 15.052 10.088 22.538H10.166C12.452 18.204 16.312 15.76 20.726 15.76H20.962C29.158 15.76 33.808 23.484 33.808 37.196C33.808 50.908 29.316 57.528 20.962 57.528H20.884C16.234 57.528 12.452 55.242 9.852 50.908H9.774C9.932 52.72 10.01 54.534 10.09 56.346H0V56.348ZM16.076 49.096C20.804 49.096 23.406 44.682 23.406 36.96V36.172C23.406 28.686 20.884 24.114 16.628 24.114C14.342 24.114 12.214 25.532 10.482 28.212C10.404 32.94 10.404 41.688 10.404 46.18C12.138 48.228 13.792 49.096 16.078 49.096H16.076Z" fill="white"/>
<path d="M52.486 15.762H53.51C64.228 15.762 69.824 22.934 69.824 36.488C69.824 50.042 64.15 57.53 53.51 57.53H52.486C41.926 57.53 36.33 50.044 36.33 36.41C36.33 22.776 41.926 15.762 52.486 15.762ZM59.658 36.646V36.41C59.658 27.742 57.53 24.116 53.118 24.116C48.706 24.116 46.576 27.742 46.576 36.41V36.646C46.576 45.552 48.704 49.098 53.196 49.098C57.688 49.098 59.658 45.71 59.658 36.646Z" fill="white"/>
<path d="M88.502 15.762H89.526C100.244 15.762 105.84 22.934 105.84 36.488C105.84 50.042 100.166 57.53 89.526 57.53H88.502C77.942 57.53 72.346 50.044 72.346 36.41C72.346 22.776 77.942 15.762 88.502 15.762ZM95.672 36.646V36.41C95.672 27.742 93.544 24.116 89.132 24.116C84.72 24.116 82.592 27.742 82.592 36.41V36.646C82.592 45.552 84.72 49.098 89.212 49.098C93.704 49.098 95.674 45.71 95.674 36.646H95.672Z" fill="white"/>
<path d="M108.362 56.348C108.678 37.986 108.678 17.496 108.362 0H118.922C118.764 10.088 118.606 19.466 118.686 30.578H120.342C125.306 30.578 127.276 27.346 127.276 17.654V16.944H136.496V17.654C136.496 27.742 133.66 33.18 128.142 34.046L127.67 34.124V34.596C127.986 43.344 130.664 47.52 135.156 47.52C136.338 47.52 137.598 47.284 138.386 47.048C138.386 50.358 138.464 53.51 138.702 56.742C137.44 57.214 135.628 57.53 133.894 57.53C126.17 57.53 122.152 51.304 121.206 37.67H118.762C118.762 43.266 118.762 50.988 118.92 56.348H108.36H108.362Z" fill="white"/>
<path d="M147.096 12.728C143.156 12.728 142.21 11.704 142.21 6.896V6.58C142.21 1.694 143.076 0.589996 147.018 0.589996C150.96 0.589996 152.062 1.614 152.062 6.58V6.896C152.062 11.704 151.116 12.728 147.098 12.728H147.096ZM141.854 56.348C142.09 43.818 142.09 28.924 141.854 16.944H152.414C152.098 28.922 152.098 43.818 152.414 56.348H141.854Z" fill="white"/>
<path d="M158.484 56.348C158.8 46.892 158.878 34.518 158.878 24.982H155.646C155.488 22.146 155.33 20.096 155.174 17.022H158.878C158.8 13.16 158.72 9.37799 158.72 5.59399H169.202C169.124 9.06199 169.044 12.924 168.966 17.022H174.482C174.482 18.834 174.482 22.224 174.56 24.982H168.964C168.886 35.464 168.886 48.546 169.2 56.348H158.482H158.484Z" fill="white"/>
</g>
<defs>
<clipPath id="clip0_250_7604">
<rect width="174.56" height="57.53" fill="white"/>
</clipPath>
</defs>
</svg>
