<svg width="24" height="24" viewBox="0 0 24 24" fill="none" xmlns="http://www.w3.org/2000/svg">
<g clip-path="url(#clip0_1967_20065)">
<path d="M20.8704 6.50476H19.5926V5.19048C19.5926 3.98243 18.6375 3 17.463 3H2.12963C0.955137 3 0 3.98243 0 5.19048V15.7048C0 16.9128 0.955137 17.8952 2.12963 17.8952H3.40741V19.2095C3.40741 20.4176 4.36255 21.4 5.53704 21.4H20.8704C22.0449 21.4 23 20.4176 23 19.2095V8.69524C23 7.48719 22.0449 6.50476 20.8704 6.50476ZM22.1481 8.69524V10.0095H4.25926V8.69524C4.25926 7.9702 4.83214 7.38095 5.53704 7.38095H20.8704C21.5753 7.38095 22.1481 7.9702 22.1481 8.69524ZM22.1481 12.638H4.25926V10.8856H22.1481V12.638ZM2.12949 17.0189C1.4246 17.0189 0.851716 16.4297 0.851716 15.7046V5.19034C0.851716 4.4653 1.4246 3.87605 2.12949 3.87605H17.4628C18.1677 3.87605 18.7406 4.4653 18.7406 5.19034V6.50462H5.53676C4.36227 6.50462 3.40714 7.48705 3.40714 8.6951V17.019L2.12949 17.0189ZM20.8702 20.5237H5.5369C4.832 20.5237 4.25912 19.9344 4.25912 19.2094V13.5143H22.148V19.2094C22.148 19.9344 21.5751 20.5237 20.8702 20.5237Z" fill="#202733" stroke="#202733" stroke-width="0.3"/>
<path d="M18.7406 15.2656C17.8014 15.2656 17.0369 16.052 17.0369 17.018C17.0369 17.984 17.8014 18.7704 18.7406 18.7704C19.6798 18.7704 20.4443 17.984 20.4443 17.018C20.4443 16.052 19.6798 15.2656 18.7406 15.2656ZM18.7406 17.8942C18.271 17.8942 17.8888 17.501 17.8888 17.018C17.8888 16.535 18.271 16.1418 18.7406 16.1418C19.2102 16.1418 19.5925 16.535 19.5925 17.018C19.5925 17.501 19.2102 17.8942 18.7406 17.8942Z" fill="#202733"/>
</g>
<defs>
<clipPath id="clip0_1967_20065">
<rect width="24" height="24" fill="white"/>
</clipPath>
</defs>
</svg>
