<svg width="24" height="24" viewBox="0 0 24 24" fill="none" xmlns="http://www.w3.org/2000/svg">
<path fill-rule="evenodd" clip-rule="evenodd" d="M20.2633 9.18123H17.0646V9.00467V2.64843C17.0646 1.16531 15.8562 0 14.399 0H3.66559C2.17286 0 1 1.20059 1 2.64843V14.4781C1 14.7606 1.39095 14.9372 1.6042 14.7253L5.01615 11.6531H6.8643V11.8297V18.1859C6.8643 19.669 8.0727 20.8343 9.56543 20.8343H18.9838L22.3958 23.9065C22.609 24.1184 23 23.9418 23 23.6593V11.8297C22.9289 10.3818 21.7561 9.18123 20.2633 9.18123ZM22.1826 11.865V22.8506L19.3037 20.2693C19.2326 20.1987 19.1616 20.1634 19.0549 20.1634H9.49435C8.39257 20.1634 7.50404 19.2806 7.50404 18.2213V11.865C7.50404 11.6885 7.53958 11.5472 7.57512 11.4059C7.78837 10.5231 8.57027 9.92283 9.49435 9.92283H20.2278C21.3296 9.92283 22.1826 10.8056 22.1826 11.865Z" fill="#202733"/>
<path d="M11.216 7.108H7.136L6.224 9.208H5L8.636 1H9.716L13.352 9.208H12.128L11.216 7.108ZM10.76 6.052L9.176 2.38L7.592 6.052H10.76Z" fill="white"/>
<path d="M11.9309 19C11.3095 19 10.7758 18.8817 10.3298 18.6452C9.88386 18.4087 9.54391 18.0713 9.30996 17.633C9.08332 17.2017 8.98097 16.6939 9.0029 16.1096C9.01021 15.9496 9.0358 15.7548 9.07967 15.5252C9.12353 15.2957 9.19298 15.0626 9.28803 14.8261C9.3392 14.7009 9.39038 14.6139 9.44155 14.5652C9.49273 14.5165 9.56218 14.5026 9.64991 14.5235L9.9789 14.6174C10.0886 14.6452 10.1507 14.6835 10.1653 14.7322C10.1873 14.7809 10.1836 14.84 10.1544 14.9096C10.0739 15.1183 10.0155 15.3165 9.9789 15.5043C9.94235 15.6852 9.92407 15.8313 9.92407 15.9426C9.8802 16.5896 10.0228 17.0939 10.3518 17.4557C10.6881 17.8243 11.2364 18.0157 11.9967 18.0296C12.4353 18.0296 12.8192 17.9496 13.1482 17.7896C13.4771 17.6365 13.733 17.4174 13.9158 17.1322C14.0986 16.847 14.1899 16.5165 14.1899 16.1409C14.1899 15.8904 14.179 15.6783 14.157 15.5043C14.1351 15.3235 14.1022 15.1426 14.0584 14.9617C14.0145 14.7739 13.956 14.5443 13.8829 14.273C13.8536 14.2035 13.8573 14.1409 13.8939 14.0852C13.9304 14.0296 13.9889 13.9913 14.0693 13.9704L14.5189 13.8661C14.5994 13.8452 14.6615 13.8591 14.7054 13.9078C14.7492 13.9496 14.7748 13.9983 14.7821 14.0539C14.8406 14.2626 14.8918 14.4574 14.9357 14.6383C14.9795 14.8191 15.027 14.993 15.0782 15.16C15.1367 15.3548 15.2427 15.5078 15.3962 15.6191C15.5498 15.7235 15.791 15.7757 16.12 15.7757C16.5002 15.7757 16.7561 15.6817 16.8876 15.4939C17.0192 15.2991 17.085 15.0348 17.085 14.7009V13.887C17.085 13.8104 17.107 13.7478 17.1508 13.6991C17.1947 13.6504 17.2532 13.6261 17.3263 13.6261H17.743C17.8234 13.6261 17.8819 13.6504 17.9185 13.6991C17.9623 13.7478 17.9843 13.8104 17.9843 13.887V14.7217C17.9843 15.1043 18.0757 15.3757 18.2584 15.5357C18.4412 15.6957 18.719 15.7757 19.0919 15.7757C19.472 15.7757 19.7352 15.6991 19.8814 15.5461C20.0277 15.3861 20.1008 15.1774 20.1008 14.92C20.1008 14.8365 20.0898 14.7357 20.0679 14.6174C20.0459 14.4991 20.013 14.3774 19.9692 14.2522L19.7389 13.48C19.7316 13.4452 19.7206 13.4139 19.706 13.3861C19.6987 13.3583 19.695 13.3339 19.695 13.313C19.695 13.2504 19.7096 13.2052 19.7389 13.1774C19.7754 13.1496 19.823 13.1287 19.8814 13.1148L20.2762 13.0209C20.2982 13.0139 20.3164 13.0104 20.3311 13.0104C20.353 13.0035 20.3713 13 20.3859 13C20.4444 13 20.4882 13.0243 20.5175 13.073C20.554 13.1148 20.5869 13.1843 20.6162 13.2817L20.8136 13.9704C20.8721 14.1513 20.9159 14.3322 20.9452 14.513C20.9817 14.6939 21 14.8504 21 14.9826C21 15.3443 20.9232 15.6609 20.7697 15.9322C20.6235 16.1965 20.4042 16.4052 20.1117 16.5583C19.8266 16.7043 19.4757 16.7774 19.059 16.7774C18.6934 16.7774 18.3718 16.7183 18.0939 16.6C17.8161 16.4817 17.6041 16.3009 17.4579 16.0574C17.3629 16.287 17.191 16.4643 16.9425 16.5896C16.7012 16.7148 16.4161 16.7774 16.0871 16.7774C15.8166 16.7774 15.5973 16.7391 15.4291 16.6626C15.2683 16.5791 15.1257 16.4643 15.0015 16.3183C14.9649 16.7913 14.8516 17.1983 14.6615 17.5391C14.4714 17.88 14.2265 18.1583 13.9268 18.3739C13.6343 18.5896 13.3126 18.7461 12.9617 18.8435C12.6181 18.9478 12.2745 19 11.9309 19Z" fill="#202733"/>
</svg>
