<svg width="24" height="24" viewBox="0 0 24 24" fill="none" xmlns="http://www.w3.org/2000/svg">
<path d="M8.58769 12.7474C11.0026 12.7474 12.9614 10.7886 12.9614 8.3737C12.9614 5.95882 11.0026 4 8.58769 4C6.17281 4 4.21399 5.95882 4.21399 8.3737C4.21399 10.7886 6.17281 12.7474 8.58769 12.7474ZM8.58769 4.9196C10.4942 4.9196 12.0418 6.46721 12.0418 8.3737C12.0418 10.2802 10.4942 11.8278 8.58769 11.8278C6.6812 11.8278 5.13359 10.2802 5.13359 8.3737C5.13359 6.46721 6.6812 4.9196 8.58769 4.9196Z" fill="#202733" stroke="#202733" stroke-width="0.37382" stroke-miterlimit="10"/>
<path d="M16.1238 19.0576L15.9295 18.1455C15.4136 15.9698 14.1246 13.4297 11.2268 13.4297H5.36008C3.12463 13.4297 1.74671 15.9698 1.23083 18.1455L1.01402 19.0576C0.976636 19.2071 1.01402 19.3716 1.12616 19.4837C1.38036 19.7454 1.82147 19.6258 1.90371 19.2744L2.12053 18.3623C2.53921 16.5978 3.62463 14.3568 5.43392 14.3568H11.8153C13.6246 14.3568 14.5986 16.5978 15.0173 18.3623L15.2341 19.2744C15.3164 19.6258 15.765 19.7454 16.0117 19.4837C16.1164 19.3716 16.1612 19.2146 16.1238 19.0576Z" fill="#202733" stroke="#202733" stroke-width="0.37382" stroke-miterlimit="10"/>
<path d="M12.0865 12.067C12.7669 12.5007 13.5744 12.7474 14.4416 12.7474C16.8565 12.7474 18.8153 10.7886 18.8153 8.3737C18.8153 5.95882 16.8565 4 14.4416 4C13.5818 4 12.7893 4.24672 12.109 4.67288C12.109 4.67288 12.5875 5.00184 12.7819 5.34575C13.2753 5.0766 13.836 4.9196 14.4341 4.9196C16.3406 4.9196 17.8882 6.46721 17.8882 8.3737C17.8882 10.2802 16.3406 11.8278 14.4341 11.8278C13.836 11.8278 13.2678 11.6708 12.7744 11.4016C12.7744 11.4016 12.5052 11.753 12.0865 12.067Z" fill="#202733" stroke="#202733" stroke-width="0.37382" stroke-miterlimit="10"/>
<path d="M15.279 14.3642H17.3153C19.1246 14.3642 20.4751 16.6053 20.8938 18.3698L21.1106 19.2819C21.1929 19.6333 21.6415 19.7529 21.8882 19.4912C21.9929 19.3791 22.0377 19.2221 22.0003 19.0651L21.7835 18.1455C21.2676 15.9698 20.0135 13.4297 17.7706 13.4297H13.9931C13.9931 13.4297 14.6435 13.7063 15.279 14.3642Z" fill="#202733" stroke="#202733" stroke-width="0.37382" stroke-miterlimit="10"/>
</svg>
