<svg width="20" height="20" viewBox="0 0 20 20" fill="none" xmlns="http://www.w3.org/2000/svg">
<g clip-path="url(#clip0_1_158)">
<path d="M18.47 14.0618C18.02 15.0576 17.8033 15.5034 17.2283 16.3867C16.4201 17.6158 15.2784 19.1532 13.8702 19.1615C12.6161 19.174 12.2911 18.3449 10.587 18.3574C8.88294 18.3657 8.52879 19.1782 7.27468 19.1657C5.86226 19.1532 4.78314 17.7699 3.97485 16.5408C1.7083 13.0952 1.47081 9.05371 2.86657 6.90798C3.85819 5.38306 5.42061 4.49144 6.89137 4.49144C8.36213 4.49144 9.32875 5.31223 10.5662 5.31223C11.8036 5.31223 12.4994 4.48727 14.2285 4.48727C15.5368 4.48727 16.92 5.19974 17.9116 6.42884C14.6743 8.20375 15.2035 12.8244 18.47 14.0618ZM12.9161 3.11234C13.5452 2.30405 14.0243 1.16244 13.8494 0C12.8244 0.0708298 11.6203 0.724963 10.9203 1.57492C10.2829 2.34988 9.75789 3.49982 9.96205 4.61227C11.0828 4.64977 12.2453 3.97897 12.9161 3.11234Z" fill="black"/>
</g>
<defs>
<clipPath id="clip0_1_158">
<rect width="16.47" height="19.1657" fill="white" transform="translate(2.00006)"/>
</clipPath>
</defs>
</svg>
