<svg width="18" height="18" viewBox="0 0 18 18" fill="none" xmlns="http://www.w3.org/2000/svg">
<g clip-path="url(#clip0_1_164)">
<path d="M17.8245 7.236H17.1V7.2H9V10.8H14.085C13.3425 12.897 11.349 14.4 9 14.4C6.0165 14.4 3.6 11.9835 3.6 9C3.6 6.0165 6.0165 3.6 9 3.6C10.377 3.6 11.628 4.1175 12.582 4.968L15.129 2.421C13.5225 0.9225 11.3715 0 9 0C4.0275 0 0 4.0275 0 9C0 13.9725 4.0275 18 9 18C13.9725 18 18 13.968 18 9C18 8.397 17.937 7.8075 17.8245 7.236Z" fill="#FFC107"/>
<path d="M1.03949 4.8105L3.99599 6.9795C4.79699 4.9995 6.73199 3.6 8.99999 3.6C10.377 3.6 11.628 4.1175 12.582 4.968L15.129 2.421C13.5225 0.9225 11.3715 0 8.99999 0C5.54399 0 2.54699 1.953 1.03949 4.8105Z" fill="#FF3D00"/>
<path d="M8.99999 18C11.3265 18 13.437 17.109 15.0345 15.6645L12.249 13.3065C11.3445 13.9905 10.224 14.4 8.99999 14.4C6.65999 14.4 4.67099 12.906 3.92399 10.8225L0.98999 13.086C2.47949 16.002 5.50349 18 8.99999 18Z" fill="#4CAF50"/>
<path d="M17.8245 7.23601H17.1V7.20001H9V10.8H14.085C13.7295 11.808 13.0815 12.6765 12.2445 13.3065L15.03 15.6645C14.832 15.8445 17.9955 13.5 17.9955 9.00001C17.9955 8.39701 17.9325 7.80751 17.82 7.23601H17.8245Z" fill="#1976D2"/>
</g>
<defs>
<clipPath id="clip0_1_164">
<rect width="18" height="18" fill="white"/>
</clipPath>
</defs>
</svg>
